<svg width="64" height="64" viewBox="0 0 64 64" fill="none" xmlns="http://www.w3.org/2000/svg">
<path d="M17 50.9653V10C17 8.68646 18.4386 7.88009 19.5591 8.56557L55.0566 30.2817C57.029 31.4883 56.9524 34.3787 54.9189 35.4792L21.4278 53.6038C19.429 54.6855 17 53.2381 17 50.9653Z" fill="url(#paint0_linear_290_1156)"/>
<path d="M64 32C64 14.3269 49.6731 0 32 0C14.3269 0 0 14.3269 0 32C0 49.6731 14.3269 64 32 64C49.6731 64 64 49.6731 64 32ZM23.8847 50.1862C21.8847 51.3408 19.3848 49.8975 19.3848 47.5881V16.4119C19.3848 14.1025 21.8847 12.6592 23.8847 13.8138L50.8846 29.4019C52.8847 30.5566 52.8847 33.4434 50.8846 34.5981L23.8847 50.1862Z" fill="white"/>
<defs>
<linearGradient id="paint0_linear_290_1156" x1="38.25" y1="7" x2="38.25" y2="56" gradientUnits="userSpaceOnUse">
<stop stop-color="#FFCC00"/>
<stop offset="1" stop-color="#FF0000"/>
</linearGradient>
</defs>
</svg>
