<svg width="32" height="32" viewBox="0 0 32 32" fill="none" xmlns="http://www.w3.org/2000/svg">
<path fill-rule="evenodd" clip-rule="evenodd" d="M5.81818 0C4.2751 0 2.79523 0.612985 1.70411 1.70411C0.612985 2.79523 0 4.2751 0 5.81818V26.1818C0 27.7249 0.612985 29.2048 1.70411 30.2959C2.79523 31.387 4.2751 32 5.81818 32H26.1818C27.7249 32 29.2048 31.387 30.2959 30.2959C31.387 29.2048 32 27.7249 32 26.1818V5.81818C32 4.2751 31.387 2.79523 30.2959 1.70411C29.2048 0.612985 27.7249 0 26.1818 0H5.81818ZM5.33236 5.09091C5.17314 5.15008 5.02993 5.24562 4.91415 5.36992C4.79836 5.49421 4.71321 5.64383 4.66546 5.80685C4.61771 5.96987 4.60869 6.14178 4.63912 6.3089C4.66955 6.47602 4.73859 6.63373 4.84073 6.76945L13.0065 17.6058L4.40291 26.8349L4.33891 26.9091H7.31636L14.3418 19.376L19.7411 26.544C19.8664 26.7099 20.0364 26.8366 20.2313 26.9091H26.6633C26.8223 26.8496 26.9652 26.7538 27.0806 26.6294C27.1961 26.505 27.2809 26.3553 27.3284 26.1923C27.3759 26.0293 27.3846 25.8575 27.354 25.6906C27.3234 25.5236 27.2542 25.3661 27.152 25.2305L18.9862 14.3942L27.6611 5.09091H24.6793L17.6538 12.6255L12.2516 5.45745C12.1266 5.291 11.9565 5.16381 11.7615 5.09091H5.33236ZM21.1578 24.7971L7.89964 7.20291H10.8364L24.0931 24.7956L21.1578 24.7971Z" fill="black"/>
</svg>
