<svg width="43" height="30" viewBox="0 0 43 30" fill="none" xmlns="http://www.w3.org/2000/svg">
<path d="M41.8908 4.69783C41.6451 3.78981 41.1658 2.96201 40.5006 2.29684C39.8355 1.63167 39.0077 1.15235 38.0997 0.906601C34.7755 0 21.3967 0 21.3967 0C21.3967 0 8.01721 0.0274422 4.69301 0.934043C3.78498 1.1798 2.95718 1.65915 2.29204 2.32435C1.6269 2.98955 1.14763 3.81739 0.901948 4.72544C-0.103546 10.6319 -0.493595 19.632 0.929558 25.3022C1.17526 26.2102 1.65455 27.038 2.31969 27.7032C2.98483 28.3683 3.81261 28.8477 4.72062 29.0934C8.04482 30 21.424 30 21.424 30C21.424 30 34.8029 30 38.127 29.0934C39.035 28.8477 39.8628 28.3684 40.528 27.7032C41.1932 27.038 41.6725 26.2102 41.9182 25.3022C42.9787 19.3873 43.3055 10.3928 41.8908 4.69783Z" fill="#FF0000"/>
<path d="M17.1382 21.4285L28.2369 15L17.1382 8.57142V21.4285Z" fill="white"/>
</svg>
